<?xml version="1.0" standalone="no"?>
<!DOCTYPE svg PUBLIC "-//W3C//DTD SVG 20010904//EN"
 "http://www.w3.org/TR/2001/REC-SVG-20010904/DTD/svg10.dtd">
<svg version="1.0" xmlns="http://www.w3.org/2000/svg"
 width="256.000000pt" height="256.000000pt" viewBox="0 0 256.000000 256.000000"
 preserveAspectRatio="xMidYMid meet">

<g transform="translate(0.000000,256.000000) scale(0.100000,-0.100000)"
fill="#000000" stroke="none">
<path d="M813 2382 c-108 -39 -176 -105 -208 -203 l-17 -49 -198 0 c-211 0
-230 -4 -230 -50 0 -46 19 -50 229 -50 l198 0 21 -58 c30 -80 79 -135 160
-174 58 -29 77 -33 142 -33 62 0 86 5 132 28 75 37 142 112 165 183 l17 54
572 0 c507 0 574 2 588 16 20 20 20 48 0 68 -14 14 -81 16 -588 16 l-572 0
-17 54 c-49 155 -242 252 -394 198z m185 -111 c162 -83 162 -299 0 -382 -45
-23 -125 -25 -176 -4 -167 71 -169 317 -2 389 50 22 133 20 178 -3z"/>
<path d="M1570 1586 c-98 -26 -188 -110 -217 -202 l-17 -54 -572 0 c-507 0
-574 -2 -588 -16 -20 -20 -20 -48 0 -68 14 -14 81 -16 588 -16 l572 0 17 -54
c22 -69 91 -147 160 -180 174 -85 382 2 442 185 l17 49 198 0 c211 0 230 4
230 50 0 46 -19 50 -230 50 l-198 0 -17 49 c-33 100 -110 174 -215 205 -63 19
-108 19 -170 2z m168 -111 c169 -71 169 -319 0 -390 -51 -21 -131 -19 -176 4
-163 84 -161 298 3 384 39 21 125 21 173 2z"/>
<path d="M813 782 c-108 -39 -176 -105 -208 -203 l-17 -49 -198 0 c-211 0
-230 -4 -230 -50 0 -46 19 -50 229 -50 l198 0 21 -58 c30 -80 79 -135 160
-174 58 -29 77 -33 142 -33 62 0 86 5 132 28 75 37 142 112 165 183 l17 54
572 0 c507 0 574 2 588 16 20 20 20 48 0 68 -14 14 -81 16 -588 16 l-572 0
-17 54 c-49 155 -242 252 -394 198z m185 -111 c162 -83 162 -299 0 -382 -45
-23 -125 -25 -176 -4 -167 71 -169 317 -2 389 50 22 133 20 178 -3z"/>
</g>
</svg>
